<svg width="100%" height="120" viewBox="0 0 430 120" fill="none" xmlns="http://www.w3.org/2000/svg">
<path d="M0 66.0674C0 50.1928 0 42.2555 1.82213 35.7619C6.44054 19.3028 19.3028 6.44054 35.7619 1.82213C42.2555 0 50.1928 0 66.0674 0H100.148C108.544 0 112.741 0 116.819 0.858977C120.897 1.71795 124.738 3.41131 132.42 6.79803L148.08 13.702C155.762 17.0887 159.603 18.782 163.681 19.641C167.759 20.5 171.956 20.5 180.352 20.5H214.5H252.567C260.012 20.5 263.735 20.5 267.373 19.8209C271.012 19.1417 274.483 17.7989 281.427 15.1131L306.996 5.22317C313.517 2.70095 316.777 1.43985 320.186 0.763937C320.48 0.705751 320.774 0.650858 321.068 0.599269C324.491 0 327.987 0 334.979 0H363.933C379.807 0 387.744 0 394.238 1.82213C410.697 6.44054 423.559 19.3028 428.178 35.7619C430 42.2555 430 50.1928 430 66.0674C430 79.0263 430 85.5057 428.513 90.8066C424.742 104.243 414.243 114.742 400.807 118.513C395.506 120 389.026 120 376.067 120H53.9326C40.9737 120 34.4943 120 29.1933 118.513C15.7574 114.742 5.25758 104.243 1.48745 90.8066C0 85.5057 0 79.0263 0 66.0674Z" fill="#44F1A6"/>
</svg>
